 http://www.silvertorrent.org 
http://silvertorrent.org/index.php?page=torrent-details&id=d633515371195e587d633fb112ada4da45050829 
http://www.shotpix.com/images/08096634903738710469.png
 
http://collider.com/wp-content/uploads/zero-dark-thirty-poster1.jpg

General
http://www.imdb.com/title/tt1790885/
Complete name                            :Zero.Dark.Thirty.2012.DVDSCR Xvid Ac3-ADTRG.avi
Source                                  : Zero.Dark.Thirty.2012.DVDSCR.MKV  [Thanks]
Format                                   : AVI
Format/Info                              : Audio Video Interleave
Format profile                           : OpenDML
File size                                : 2.34 GiB
Duration                                 : 2h 36mn
Overall bit rate                         : 2 138 Kbps
Writing application                      : VirtualDubMod 1.5.10.2 (build 2540/release)
Writing library                          : VirtualDubMod build 2540/release

Video
ID                                       : 0
Format                                   : MPEG-4 Visual
Format profile                           : Advanced Simple@L5
Format settings, BVOP                    : 2
Format settings, QPel                    : No
Format settings, GMC                     : No warppoints
Format settings, Matrix                  : Default (H.263)
Muxing mode                              : Packed bitstream
Codec ID                                 : XVID
Codec ID/Hint                            : XviD
Duration                                 : 2h 36mn
Bit rate                                 : 1 676 Kbps
Width                                    : 720 pixels
Height                                   : 384 pixels
Display aspect ratio                     : 1.875
Frame rate                               : 29.970 fps
Color space                              : YUV
Chroma subsampling                       : 4:2:0
Bit depth                                : 8 bits
Scan type                                : Progressive
Compression mode                         : Lossy
Bits/(Pixel*Frame)                       : 0.202
Stream size                              : 1.84 GiB (78%)
Writing library                          : XviD 64

Audio
ID                                       : 1
Format                                   : AC-3
Format/Info                              : Audio Coding 3
Mode extension                           : CM (complete main)
Codec ID                                 : 2000
Duration                                 : 2h 36mn
Bit rate mode                            : Constant
Bit rate                                 : 448 Kbps
Channel(s)                               : 2 channels
Channel positions                        : Front: L R
Sampling rate                            : 48.0 KHz
Bit depth                                : 16 bits
Compression mode                         : Lossy
Stream size                              : 503 MiB (21%)
Alignment                                : Split accross interleaves
Interleave, duration                     : 33 ms (1.00 video frame)
Interleave, preload duration             : 500 ms

Screens :
 
http://silvertorrent.org/index.php?page=torrent-details&id=d633515371195e587d633fb112ada4da45050829 
http://piczend.com/img.php?image=0812_5_x58d.jpeg
http://piczend.com/img.php?image=9766_4_fho0.jpeg
http://piczend.com/img.php?image=1036_3_588o.jpeg
http://piczend.com/img.php?image=0647_2_cq9p.jpeg
http://piczend.com/img.php?image=9293_1_y65j.jpeg 
http://silvertorrent.org/index.php?page=torrent-details&id=d633515371195e587d633fb112ada4da45050829 
http://i953.photobucket.com/albums/ae11/pego31/no%202/adtrg.jpg

Don't fear the Atomic Dragon..... Embrace it  :)

Greetz  :

26k, HS, ZeUs, inferno, devildeeds74 

respect to all that try ;)